<?xml version="1.0" encoding="UTF-8"?>
<svg id="Layer_2" data-name="Layer 2" xmlns="http://www.w3.org/2000/svg" viewBox="0 0 346 346">
  <defs>
    <style>
      .cls-1 {
        fill: #fff;
      }

      .cls-2 {
        fill: #ff8700;
      }
    </style>
  </defs>
  <g id="Layer_1-2" data-name="Layer 1">
    <g>
      <circle class="cls-2" cx="173" cy="173" r="173"/>
      <g>
        <path class="cls-1" d="m236.09,294.29c-.1,0-.21,0-.31-.01-1.89-.17-3.29-1.84-3.12-3.73,1.76-19.61,11.88-33.29,21.67-46.52,5.61-7.58,11.41-15.41,15.67-24.38,9.99-21.01,9.8-47.43,9.64-70.75v-.25c-.08-11.13-.42-23.05-2.33-34.8-.09-.55-.18-1.18-.28-1.87-.54-3.73-1.82-12.45-4.87-13.84-1.56-.71-2.16-.32-2.45-.12-2.52,1.69-6.57,9.76-5.32,44.92.07,1.97.12,3.27.1,3.97-.05,1.9-1.63,3.38-3.53,3.35-1.9-.05-3.4-1.63-3.35-3.53.01-.49-.04-1.91-.1-3.55-.78-21.87-.39-45.03,8.37-50.88,1.86-1.24,4.95-2.32,9.13-.42,6.46,2.95,7.94,13.06,8.82,19.11.09.65.18,1.24.26,1.76,1.99,12.22,2.34,24.46,2.42,35.86v.25c.17,24.06.36,51.32-10.3,73.76-4.55,9.57-10.55,17.68-16.35,25.52-9.65,13.04-18.77,25.35-20.35,43.04-.16,1.79-1.66,3.13-3.42,3.13Z"/>
        <path class="cls-1" d="m188.07,293.5c-1.89,0-3.43-1.53-3.44-3.43-.03-7.18-1.3-14.74-2.53-22.05-3.14-18.69-6.38-38.01,9.48-54.6,4.13-4.32,8.95-7.65,13.62-10.88,4.02-2.78,7.81-5.4,11.15-8.57,4.86-4.62,8.86-10.46,12.72-16.11,1.91-2.79,3.88-5.67,5.96-8.41.3-.39.63-.84.99-1.33,4.18-5.67,11.96-16.21,20.77-13.11,7.07,2.49,8.99,10.91,5.7,25.03-2.66,11.41-9.3,20.94-15.73,30.16-4.77,6.84-9.7,13.92-12.78,21.55-.71,1.76-2.72,2.62-4.48,1.91-1.76-.71-2.62-2.72-1.91-4.48,3.37-8.36,8.53-15.76,13.52-22.92,6.33-9.08,12.31-17.66,14.67-27.79,2.23-9.56,1.75-15.91-1.28-16.98-4.01-1.41-10.28,7.08-12.95,10.71-.38.51-.73.99-1.04,1.4-1.97,2.61-3.9,5.42-5.77,8.14-4.07,5.95-8.28,12.09-13.66,17.21-3.72,3.54-7.92,6.44-11.97,9.24-4.59,3.17-8.92,6.17-12.56,9.98-13.48,14.1-10.66,30.9-7.67,48.7,1.27,7.58,2.59,15.42,2.62,23.16,0,1.9-1.53,3.45-3.43,3.46h-.02Z"/>
        <path class="cls-1" d="m109.91,294.29c-1.76,0-3.26-1.35-3.42-3.13-1.58-17.69-10.7-30-20.35-43.04-5.8-7.84-11.8-15.95-16.35-25.52-10.67-22.43-10.47-49.7-10.31-73.76v-.25c.08-11.41.43-23.65,2.42-35.86.08-.51.17-1.11.26-1.75.88-6.04,2.36-16.16,8.82-19.11,4.18-1.91,7.27-.82,9.13.42,8.76,5.86,9.15,29.01,8.37,50.88-.06,1.64-.11,3.05-.1,3.55.05,1.9-1.45,3.48-3.35,3.53-1.93.04-3.48-1.45-3.53-3.35-.02-.71.03-2.01.1-3.97,1.25-35.15-2.8-43.23-5.32-44.92-.29-.19-.88-.59-2.45.12-3.05,1.39-4.32,10.11-4.87,13.84-.1.69-.19,1.32-.28,1.87-1.92,11.75-2.25,23.67-2.33,34.8v.25c-.17,23.32-.35,49.75,9.64,70.75,4.26,8.97,10.06,16.8,15.67,24.38,9.79,13.23,19.92,26.91,21.67,46.52.17,1.89-1.23,3.57-3.12,3.73-.1,0-.21.01-.31.01Z"/>
        <path class="cls-1" d="m157.93,293.5h-.02c-1.9,0-3.43-1.56-3.43-3.46.03-7.74,1.35-15.58,2.62-23.16,2.99-17.8,5.81-34.61-7.67-48.7-3.64-3.81-7.97-6.81-12.56-9.98-4.05-2.8-8.25-5.7-11.97-9.24-5.38-5.12-9.59-11.26-13.66-17.21-1.86-2.72-3.79-5.54-5.77-8.14-.31-.41-.66-.88-1.04-1.4-2.67-3.63-8.94-12.12-12.95-10.71-3.03,1.06-3.51,7.41-1.28,16.97,2.36,10.12,8.34,18.7,14.67,27.79,4.99,7.16,10.15,14.56,13.52,22.92.71,1.76-.14,3.77-1.91,4.48-1.76.71-3.77-.14-4.48-1.91-3.07-7.63-8.01-14.71-12.78-21.55-6.43-9.22-13.07-18.75-15.73-30.16-3.29-14.12-1.37-22.54,5.7-25.03,8.82-3.1,16.59,7.45,20.77,13.12.36.49.69.94.99,1.33,2.07,2.74,4.05,5.62,5.96,8.41,3.87,5.65,7.87,11.49,12.72,16.11,3.34,3.17,7.13,5.8,11.15,8.57,4.67,3.23,9.49,6.57,13.62,10.88,15.86,16.59,12.62,35.91,9.48,54.6-1.23,7.31-2.5,14.87-2.53,22.05,0,1.9-1.55,3.43-3.44,3.43Z"/>
        <g>
          <path class="cls-1" d="m125.54,178.26h-10.42c-1.15,0-2.08-.93-2.08-2.08v-48.58c-4.28-3.33-6.9-9.31-6.9-15.9v-9.22c0-10.24,6.37-18.58,14.19-18.58s14.19,8.33,14.19,18.58v9.22c0,6.6-2.62,12.57-6.9,15.9v48.58c0,1.15-.93,2.08-2.08,2.08Zm-8.33-4.17h6.25v-47.57c0-.7.36-1.36.95-1.75,3.62-2.36,5.96-7.5,5.96-13.09v-9.22c0-7.95-4.5-14.41-10.03-14.41s-10.02,6.46-10.02,14.41v9.22c0,5.59,2.34,10.73,5.95,13.09.59.38.95,1.04.95,1.75v47.57Z"/>
          <g>
            <path class="cls-1" d="m233.32,178.44h-10.42c-1.15,0-2.08-.93-2.08-2.08v-48.59c-4.28-3.34-6.9-9.31-6.9-15.9v-26.07c0-1.15.93-2.08,2.08-2.08s2.08.93,2.08,2.08v26.07c0,5.59,2.34,10.72,5.96,13.09.59.38.94,1.04.94,1.74v47.57h6.25v-47.57c0-.7.36-1.36.95-1.75,3.62-2.36,5.96-7.5,5.96-13.09v-26.07c0-1.15.93-2.08,2.08-2.08s2.08.93,2.08,2.08v26.07c0,6.6-2.62,12.57-6.9,15.91v48.58c0,1.15-.93,2.08-2.08,2.08Z"/>
            <path class="cls-1" d="m239.27,106.98h-22.3c-1.15,0-2.08-.93-2.08-2.08s.93-2.08,2.08-2.08h22.3c1.15,0,2.08.93,2.08,2.08s-.93,2.08-2.08,2.08Z"/>
            <g>
              <path class="cls-1" d="m224.04,105.38c-1.15,0-2.08-.93-2.08-2.08v-17.36c0-1.15.93-2.08,2.08-2.08s2.08.93,2.08,2.08v17.36c0,1.15-.93,2.08-2.08,2.08Z"/>
              <path class="cls-1" d="m232.19,105.38c-1.15,0-2.08-.93-2.08-2.08v-17.36c0-1.15.93-2.08,2.08-2.08s2.08.93,2.08,2.08v17.36c0,1.15-.93,2.08-2.08,2.08Z"/>
            </g>
          </g>
          <g>
            <path class="cls-1" d="m174.65,174.12c-23.73,0-43.05-19.31-43.05-43.05s19.31-43.04,43.05-43.04,43.04,19.31,43.04,43.04-19.31,43.05-43.04,43.05Zm0-81.92c-21.44,0-38.88,17.44-38.88,38.87s17.44,38.88,38.88,38.88,38.87-17.44,38.87-38.88-17.44-38.87-38.87-38.87Z"/>
            <path class="cls-1" d="m174.65,157.85c-14.76,0-26.77-12.01-26.77-26.77s12.01-26.77,26.77-26.77,26.77,12.01,26.77,26.77-12.01,26.77-26.77,26.77Zm0-49.38c-12.46,0-22.61,10.14-22.61,22.6s10.14,22.61,22.61,22.61,22.61-10.14,22.61-22.61-10.14-22.6-22.61-22.6Z"/>
          </g>
        </g>
      </g>
    </g>
  </g>
</svg>