<?xml version="1.0" encoding="UTF-8"?>
<svg id="Layer_2" data-name="Layer 2" xmlns="http://www.w3.org/2000/svg" viewBox="0 0 346 346">
  <defs>
    <style>
      .cls-1 {
        fill: #fff;
      }

      .cls-2 {
        fill: #ff8700;
      }
    </style>
  </defs>
  <g id="Layer_1-2" data-name="Layer 1">
    <g>
      <circle class="cls-2" cx="173" cy="173" r="173"/>
      <path class="cls-1" d="m282.2,209.94c-5.23-3.01-11.33-3.82-17.16-2.26-3.95,1.06-7.41,3.19-10.21,6.04l-40.17-23.19c2.28-5.4,3.54-11.32,3.54-17.53s-1.27-12.14-3.54-17.53l40.17-23.19c2.79,2.85,6.25,4.98,10.21,6.04,1.94.52,3.92.78,5.88.78,3.92,0,7.78-1.03,11.27-3.04,5.23-3.02,8.97-7.89,10.53-13.73,1.57-5.83.76-11.93-2.26-17.16-3.01-5.23-7.89-8.97-13.72-10.53-5.82-1.56-11.92-.76-17.15,2.26-5.23,3.02-8.98,7.89-10.53,13.73-1.06,3.96-.95,8.02.13,11.86l-40.33,23.28c-7.17-9.42-17.89-15.86-30.21-17.42v-46.59c9.72-2.53,16.96-11.3,16.96-21.81,0-12.47-10.15-22.61-22.61-22.61s-22.61,10.14-22.61,22.61c0,10.51,7.23,19.28,16.96,21.81v46.59c-12.32,1.56-23.04,7.99-30.21,17.42l-40.33-23.28c1.07-3.84,1.19-7.9.13-11.86-1.56-5.83-5.3-10.71-10.53-13.73-5.23-3.01-11.33-3.81-17.15-2.26-5.83,1.56-10.71,5.3-13.72,10.53-3.03,5.23-3.83,11.32-2.26,17.16,1.56,5.83,5.3,10.71,10.53,13.73,3.49,2.01,7.35,3.04,11.27,3.04,1.96,0,3.94-.26,5.88-.78,3.95-1.06,7.41-3.19,10.21-6.04l40.17,23.19c-2.28,5.4-3.54,11.32-3.54,17.53s1.26,12.14,3.54,17.53l-40.17,23.19c-2.79-2.85-6.25-4.98-10.21-6.04-5.81-1.57-11.92-.76-17.16,2.26-5.23,3.02-8.97,7.89-10.53,13.73-1.57,5.83-.76,11.93,2.26,17.16,3.01,5.23,7.89,8.97,13.72,10.53,1.94.52,3.92.78,5.88.78,3.92,0,7.78-1.03,11.27-3.04,5.23-3.02,8.98-7.89,10.53-13.73,1.06-3.96.95-8.02-.13-11.86l40.33-23.28c7.17,9.42,17.89,15.86,30.21,17.42v46.59c-9.72,2.53-16.96,11.3-16.96,21.81,0,12.47,10.15,22.61,22.61,22.61s22.61-10.14,22.61-22.61c0-10.51-7.23-19.28-16.96-21.81v-46.59c12.32-1.56,23.03-7.99,30.21-17.42l40.33,23.28c-1.07,3.84-1.19,7.9-.13,11.86,1.56,5.83,5.3,10.71,10.53,13.73,3.49,2.01,7.35,3.04,11.27,3.04,1.97,0,3.94-.26,5.88-.78,5.83-1.56,10.71-5.3,13.72-10.53,3.03-5.23,3.83-11.32,2.26-17.16-1.56-5.83-5.3-10.71-10.53-13.73Zm-22.22-96.39c.78-2.91,2.65-5.35,5.27-6.86,1.74-1.01,3.68-1.52,5.64-1.52.97,0,1.96.13,2.94.39,2.92.78,5.35,2.65,6.87,5.27,1.5,2.62,1.91,5.66,1.13,8.58-.78,2.91-2.65,5.35-5.27,6.86-2.61,1.51-5.65,1.91-8.58,1.13-2.91-.78-5.35-2.65-6.87-5.27-1.5-2.62-1.91-5.66-1.13-8.58Zm-175.09,8.58c-1.51,2.62-3.95,4.49-6.87,5.27-2.93.77-5.97.38-8.58-1.13-2.62-1.51-4.48-3.95-5.27-6.86-.78-2.91-.38-5.96,1.13-8.58,1.51-2.62,3.95-4.49,6.87-5.27.97-.26,1.96-.39,2.94-.39,1.96,0,3.9.51,5.64,1.52,2.62,1.51,4.48,3.95,5.27,6.86.78,2.91.38,5.96-1.13,8.58Zm1.13,110.32c-.78,2.91-2.65,5.35-5.27,6.86-2.62,1.51-5.64,1.92-8.58,1.13-2.92-.78-5.35-2.65-6.87-5.27-1.5-2.62-1.91-5.66-1.13-8.58.78-2.91,2.65-5.35,5.27-6.86,1.74-1.01,3.68-1.52,5.64-1.52.97,0,1.96.13,2.94.39,2.91.78,5.35,2.65,6.87,5.27,1.5,2.62,1.91,5.66,1.13,8.58ZM161.7,59.96c0-6.23,5.07-11.3,11.3-11.3s11.3,5.07,11.3,11.3-5.07,11.3-11.3,11.3-11.3-5.07-11.3-11.3Zm22.61,226.09c0,6.23-5.07,11.3-11.3,11.3s-11.3-5.07-11.3-11.3,5.07-11.3,11.3-11.3,11.3,5.07,11.3,11.3Zm-11.3-79.13c-18.7,0-33.91-15.21-33.91-33.91s15.21-33.91,33.91-33.91,33.91,15.21,33.91,33.91-15.21,33.91-33.91,33.91Zm107.69,28.26c-1.51,2.62-3.95,4.49-6.87,5.27-2.94.79-5.97.38-8.58-1.13-2.62-1.51-4.48-3.95-5.27-6.86-.78-2.91-.38-5.96,1.13-8.58,1.51-2.62,3.95-4.49,6.87-5.27.97-.26,1.95-.39,2.94-.39,1.97,0,3.9.51,5.64,1.52,2.62,1.51,4.48,3.95,5.27,6.86.78,2.91.38,5.96-1.13,8.58Z"/>
    </g>
  </g>
</svg>