<?xml version="1.0" encoding="UTF-8"?>
<svg id="Layer_2" data-name="Layer 2" xmlns="http://www.w3.org/2000/svg" viewBox="0 0 346 346">
  <defs>
    <style>
      .cls-1 {
        fill: #fff;
      }

      .cls-2 {
        fill: #ff8700;
      }
    </style>
  </defs>
  <g id="Layer_1-2" data-name="Layer 1">
    <g>
      <circle class="cls-2" cx="173" cy="173" r="173"/>
      <g>
        <path class="cls-1" d="m109.24,124.53c-13.07,0-23.7-10.63-23.7-23.7s10.63-23.7,23.7-23.7,23.71,10.63,23.71,23.7-10.63,23.7-23.71,23.7Zm0-40.63c-9.34,0-16.93,7.6-16.93,16.93s7.6,16.93,16.93,16.93,16.93-7.6,16.93-16.93-7.6-16.93-16.93-16.93Z"/>
        <path class="cls-1" d="m125.54,281.12c-7.67,0-13.92-6.34-13.92-14.13v-47.96c0-1.32-1.07-2.39-2.39-2.39s-2.39,1.07-2.39,2.39v47.96c0,7.79-6.24,14.13-13.92,14.13s-13.01-6.08-13.01-14.13v-58.8s0-.04,0-.06v-50.01c0-1.87,1.52-3.39,3.39-3.39s3.39,1.52,3.39,3.39v49.97s0,.04,0,.06v58.84c0,3.55,1.95,7.36,6.24,7.36,3.94,0,7.15-3.3,7.15-7.36v-47.96c0-5.05,4.11-9.16,9.16-9.16s9.16,4.11,9.16,9.16v47.96c0,4.06,3.21,7.36,7.15,7.36,4.29,0,6.24-3.82,6.24-7.36v-58.84s0-.04,0-.06v-38.43c0-7.29,2.84-14.14,8.01-19.31l21.35-21.35c1.32-1.32,3.47-1.32,4.79,0,1.32,1.32,1.32,3.47,0,4.79l-21.35,21.35c-3.88,3.88-6.02,9.04-6.02,14.52v38.47s0,.04,0,.06v58.8c0,8.06-5.6,14.13-13.01,14.13Z"/>
        <path class="cls-1" d="m73.56,214.11c-7.01,0-12.3-5.73-12.3-13.34v-45.77c0-13.3,10.82-24.12,24.12-24.12h42.92c2.95,0,5.72-1.15,7.8-3.23l10.28-10.28c1.32-1.32,3.47-1.32,4.79,0s1.32,3.47,0,4.79l-10.28,10.28c-3.36,3.36-7.83,5.21-12.59,5.21h-42.92c-9.57,0-17.35,7.78-17.35,17.35v45.77c0,3.16,1.73,6.56,5.53,6.56,3.51,0,6.36-2.94,6.36-6.56,0-1.87,1.52-3.39,3.39-3.39s3.39,1.52,3.39,3.39c0,7.35-5.89,13.34-13.13,13.34Z"/>
        <path class="cls-1" d="m236.76,124.53c-13.07,0-23.71-10.63-23.71-23.7s10.63-23.7,23.71-23.7,23.7,10.63,23.7,23.7-10.63,23.7-23.7,23.7Zm0-40.63c-9.34,0-16.93,7.6-16.93,16.93s7.6,16.93,16.93,16.93,16.93-7.6,16.93-16.93-7.6-16.93-16.93-16.93Z"/>
        <path class="cls-1" d="m253.07,281.12c-7.67,0-13.92-6.34-13.92-14.13v-47.96c0-1.32-1.07-2.39-2.39-2.39s-2.39,1.07-2.39,2.39v47.96c0,7.79-6.24,14.13-13.92,14.13s-13.01-6.08-13.01-14.13v-58.8s0-.04,0-.06v-38.47c0-5.48-2.14-10.63-6.02-14.52l-21.35-21.35c-1.32-1.32-1.32-3.47,0-4.79,1.32-1.32,3.47-1.32,4.79,0l21.35,21.35c5.16,5.16,8.01,12.02,8.01,19.31v38.43s0,.04,0,.06v58.84c0,3.55,1.95,7.36,6.24,7.36,3.94,0,7.14-3.3,7.14-7.36v-47.96c0-5.05,4.11-9.16,9.16-9.16s9.16,4.11,9.16,9.16v47.96c0,4.06,3.21,7.36,7.15,7.36,4.29,0,6.24-3.82,6.24-7.36v-58.84s0-.04,0-.06v-49.97c0-1.87,1.52-3.39,3.39-3.39s3.39,1.52,3.39,3.39v50.01s0,.04,0,.06v58.8c0,8.06-5.6,14.13-13.01,14.13Z"/>
        <path class="cls-1" d="m272.44,214.11c-7.24,0-13.13-5.98-13.13-13.34,0-1.87,1.52-3.39,3.39-3.39s3.39,1.52,3.39,3.39c0,3.62,2.85,6.56,6.36,6.56,3.8,0,5.53-3.4,5.53-6.56v-45.77c0-9.57-7.78-17.35-17.35-17.35h-42.92c-4.76,0-9.23-1.85-12.59-5.22l-10.28-10.28c-1.32-1.32-1.32-3.47,0-4.79,1.32-1.32,3.47-1.32,4.79,0l10.28,10.28c2.08,2.08,4.85,3.23,7.8,3.23h42.92c13.3,0,24.12,10.82,24.12,24.12v45.77c0,7.6-5.29,13.34-12.3,13.34Z"/>
        <path class="cls-1" d="m173,125.94c-.61,0-1.22-.16-1.76-.49l-.76-.46c-3.27-1.98-31.8-19.88-31.8-40.24,0-10.95,8.91-19.86,19.86-19.86,5.55,0,10.76,2.31,14.46,6.25,3.71-3.94,8.91-6.25,14.46-6.25,10.95,0,19.86,8.91,19.86,19.86,0,20.37-28.55,38.27-31.8,40.25l-.76.46c-.54.33-1.15.49-1.76.49Zm-14.46-54.28c-7.22,0-13.09,5.87-13.09,13.09,0,15.13,22.51,30.56,27.55,33.83,5.05-3.27,27.55-18.7,27.55-33.83,0-7.22-5.87-13.09-13.09-13.09-4.79,0-9.19,2.62-11.49,6.83-.59,1.09-1.73,1.76-2.97,1.76h0c-1.24,0-2.38-.68-2.97-1.76-2.3-4.21-6.7-6.83-11.49-6.83Z"/>
        <path class="cls-1" d="m193.81,88.13c-1.87,0-3.39-1.52-3.39-3.39,0-1.63-1.33-2.96-2.96-2.96-1.87,0-3.39-1.52-3.39-3.39s1.52-3.39,3.39-3.39c5.36,0,9.73,4.36,9.73,9.73,0,1.87-1.52,3.39-3.39,3.39Z"/>
      </g>
    </g>
  </g>
</svg>