<?xml version="1.0" encoding="utf-8"?>
<!-- Generator: Adobe Illustrator 27.3.1, SVG Export Plug-In . SVG Version: 6.00 Build 0)  -->
<svg version="1.1" id="Layer_2_00000038376097873554937800000017611679078378833027_"
	 xmlns="http://www.w3.org/2000/svg" xmlns:xlink="http://www.w3.org/1999/xlink" x="0px" y="0px" viewBox="0 0 224.6 44.8"
	 style="enable-background:new 0 0 224.6 44.8;" xml:space="preserve">
<style type="text/css">
	.st0{fill:#FF8700;}
</style>
<g id="Layer_1-2">
	<g>
		<path class="st0" d="M47.6,17c0-5.6-4.6-10.2-10.2-10.2c-0.6,0-1.2,0.1-1.7,0.2C33.3,2.7,28.8,0,23.8,0S14.3,2.7,11.9,7
			c-0.6-0.1-1.1-0.2-1.7-0.2C4.6,6.8,0,11.4,0,17c0,4.2,2.5,7.9,6.3,9.5v8.1l0,0c0.2,5.7,4.9,10.2,10.6,10.2c2.5,0,4.9-0.9,6.9-2.5
			c1.9,1.6,4.3,2.5,6.9,2.5c5.7,0,10.4-4.5,10.6-10.1v-0.1v-8.1C45.1,24.9,47.6,21.2,47.6,17L47.6,17z M30.7,41.4
			c-1.8,0-3.4-0.6-4.8-1.8c0.4-0.7,1-1.8,1.3-2.3c1.2,0.2,2.5-0.3,3.3-1.4l0.2-0.3c0.1-0.1,0.1-0.2,0.2-0.3c0,0,0.1-0.1,0.1-0.1
			l3.5-5.2c0.2-0.3,0.1-0.8-0.2-1c-0.3-0.2-0.8-0.1-1,0.2L31,32.5l0,0l0,0.1c-0.2,0.2-0.5,0.3-0.7,0.1c-0.2-0.2-0.3-0.5-0.1-0.7
			l0.3-0.4l2-3c0.2-0.3,0.1-0.8-0.2-1c-0.3-0.2-0.8-0.1-1,0.2l-2,3l0,0l-0.3,0.4c-0.2,0.2-0.5,0.3-0.7,0.1c-0.2-0.2-0.3-0.5-0.1-0.7
			l0-0.1l2.3-3.3c0.2-0.3,0.1-0.8-0.2-1c-0.3-0.2-0.8-0.1-1,0.2l-3.5,5.2c0,0-0.1,0.1-0.1,0.1c-0.1,0.1-0.1,0.2-0.2,0.3l-0.2,0.3
			c-0.7,1-0.7,2.3-0.2,3.3l-1.1,1.7c0,0-0.1,0.1-0.2,0.3c-0.4-0.3-0.8-0.8-0.9-1c-0.2-0.2-0.7-0.8-1-1.1c0.3-0.6,0.4-1.3,0.3-2
			c-0.2-1.1-0.9-2.3-1.8-3.4c-1.9-2.2-4.9-2.7-6.3-1.6c-1.7,1.4-0.8,4.7,1.1,6.9c0.9,1,1.5,1.5,2.5,1.8c0.6,0.2,1.3,0.2,1.9,0
			c0.3,0.4,1,1.2,2.2,2.6c-1.3,1-3,1.4-4.6,1.4c-3.8,0-7-3-7.2-6.8h0V24l-1.3-0.3c-3-0.8-5.1-3.5-5.1-6.6c0-3.8,3-6.8,6.8-6.8
			c0.7,0,1.4,0.1,2.1,0.3l1.5,0.5l0.6-1.4c1.6-3.8,5.3-6.2,9.4-6.2s7.8,2.4,9.4,6.2l0.6,1.4l1.5-0.5c0.7-0.2,1.4-0.3,2.1-0.3
			c3.8,0,6.8,3.1,6.8,6.8c0,3.1-2.1,5.8-5.1,6.6L37.9,24v10.8C37.6,38.5,34.5,41.4,30.7,41.4L30.7,41.4z"/>
		<g>
			<path class="st0" d="M70,18.3h-9.1v5.4h8.4v5.5h-8.4v11.7h-6.5v-28H70C70,12.8,70,18.3,70,18.3z"/>
			<path class="st0" d="M96.7,16.3c2.6,2.6,4.4,6.2,4.4,10.6c0,3.7-1.3,7.6-4.4,10.5c-2.6,2.5-6.1,4.1-10.8,4.1
				c-5.2,0-8.8-2.1-10.9-4.1c-2.7-2.5-4.4-6.3-4.4-10.4s1.8-8.1,4.3-10.6c1.9-1.9,5.4-4.1,10.9-4.1C90.3,12.2,93.9,13.5,96.7,16.3
				L96.7,16.3z M79.7,20.5c-1.2,1.2-2.5,3.2-2.5,6.3c0,2.6,0.8,4.6,2.6,6.3c1.8,1.7,3.8,2.3,6,2.3c2.8,0,4.9-1,6.2-2.4
				c1.1-1,2.4-3,2.4-6.2c0-2.9-1.2-5-2.4-6.3c-1.4-1.3-3.6-2.4-6.2-2.4S81.2,19,79.7,20.5L79.7,20.5z"/>
			<path class="st0" d="M124.4,16.3c2.6,2.6,4.4,6.2,4.4,10.6c0,3.7-1.3,7.6-4.4,10.5c-2.6,2.5-6.1,4.1-10.8,4.1
				c-5.2,0-8.8-2.1-10.9-4.1c-2.7-2.5-4.4-6.3-4.4-10.4s1.8-8.1,4.3-10.6c1.9-1.9,5.4-4.1,10.9-4.1
				C117.9,12.2,121.6,13.5,124.4,16.3L124.4,16.3z M107.4,20.5c-1.2,1.2-2.5,3.2-2.5,6.3c0,2.6,0.8,4.6,2.6,6.3
				c1.8,1.7,3.8,2.3,6,2.3c2.8,0,4.9-1,6.2-2.4c1.1-1,2.4-3,2.4-6.2c0-2.9-1.2-5-2.4-6.3c-1.4-1.3-3.6-2.4-6.2-2.4
				S108.9,19,107.4,20.5L107.4,20.5z"/>
			<path class="st0" d="M139.3,12.8c3.7,0,7.6,0.6,11,3.9c2.5,2.4,4,5.7,4,10s-1.5,7.6-3.8,9.9c-3.9,3.9-8.7,4.2-11,4.2h-9.1v-28
				H139.3z M136.9,35.3h1.7c1.3,0,4.3-0.1,6.4-1.9c1.5-1.3,2.7-3.6,2.7-6.8s-1.2-5-2.3-6c-2.1-2.1-4.8-2.4-6.8-2.4h-1.7L136.9,35.3
				L136.9,35.3z"/>
			<path class="st0" d="M170.4,19.7c-2.1-1.9-3.9-2-4.7-2c-0.9,0-2,0.1-2.7,1c-0.4,0.4-0.7,1-0.7,1.8c0,0.7,0.2,1.2,0.6,1.5
				c0.7,0.6,1.6,0.9,3.5,1.6l2.1,0.8c1.2,0.5,2.7,1.1,3.8,2.1c1.6,1.5,2.1,3.6,2.1,5.2c0,2.9-1,5.4-2.5,6.9
				c-2.5,2.6-6.1,2.8-7.9,2.8c-2,0-3.8-0.3-5.5-1.2c-1.4-0.7-3.1-2-4.1-3.1l3.4-4.6c0.7,0.7,1.9,1.7,2.6,2.1c1.1,0.7,2.2,1,3.5,1
				c0.8,0,2-0.2,2.9-1c0.6-0.5,1-1.2,1-2.3c0-0.9-0.4-1.5-1-2c-0.8-0.6-2.5-1.3-3.3-1.5l-2.3-0.8c-1.3-0.5-2.8-1-3.9-2.2
				c-1.5-1.5-1.7-3.5-1.7-4.9c0-2.5,0.8-4.6,2.4-6.3c2-2,4.3-2.6,6.9-2.6c1.9,0,5,0.3,8.3,2.8L170.4,19.7L170.4,19.7z"/>
			<path class="st0" d="M183.4,12.8v28H177v-28H183.4z"/>
			<path class="st0" d="M203.3,18.3h-9.4v5.4h8.9v5.5h-8.9v6.2h9.4v5.5h-15.8v-28h15.8V18.3z"/>
			<path class="st0" d="M220.7,19.7c-2.1-1.9-3.9-2-4.7-2c-0.9,0-2,0.1-2.7,1c-0.4,0.4-0.7,1-0.7,1.8c0,0.7,0.2,1.2,0.6,1.5
				c0.7,0.6,1.6,0.9,3.5,1.6l2.1,0.8c1.2,0.5,2.7,1.1,3.8,2.1c1.6,1.5,2.1,3.6,2.1,5.2c0,2.9-1,5.4-2.5,6.9
				c-2.5,2.6-6.1,2.8-7.9,2.8c-2,0-3.8-0.3-5.5-1.2c-1.4-0.7-3.1-2-4.1-3.1l3.4-4.6c0.7,0.7,1.9,1.7,2.6,2.1c1.1,0.7,2.2,1,3.5,1
				c0.8,0,2-0.2,2.9-1c0.6-0.5,1-1.2,1-2.3c0-0.9-0.4-1.5-1-2c-0.8-0.6-2.5-1.3-3.3-1.5l-2.3-0.8c-1.3-0.5-2.8-1-3.9-2.2
				c-1.5-1.5-1.7-3.5-1.7-4.9c0-2.5,0.8-4.6,2.4-6.3c2-2,4.3-2.6,6.9-2.6c1.9,0,5,0.3,8.3,2.8L220.7,19.7L220.7,19.7z"/>
		</g>
	</g>
</g>
</svg>
