<?xml version="1.0" encoding="utf-8"?>
<!-- Generator: Adobe Illustrator 27.3.1, SVG Export Plug-In . SVG Version: 6.00 Build 0)  -->
<svg version="1.1" id="Layer_2_00000047023060413876638190000013333399689157781888_"
	 xmlns="http://www.w3.org/2000/svg" xmlns:xlink="http://www.w3.org/1999/xlink" x="0px" y="0px" viewBox="0 0 170.2 106.8"
	 style="enable-background:new 0 0 170.2 106.8;" xml:space="preserve">
<style type="text/css">
	.st0{fill:#FFFFFF;}
	.st1{font-family:'Roboto-Regular';}
	.st2{font-size:8px;}
</style>
<path class="st0" d="M113.1,20.1c0-6.6-5.4-12-12-12c-0.7,0-1.4,0.1-2,0.2C96.2,3.2,90.9,0,85.1,0s-11.2,3.2-14,8.2
	c-0.7-0.1-1.3-0.2-2-0.2c-6.6,0-12,5.4-12,12c0,4.9,3,9.3,7.5,11.1v9.6l0,0c0.3,6.7,5.8,12,12.5,12c3,0,5.8-1.1,8.1-3
	c2.2,1.9,5.1,3,8.1,3c6.7,0,12.2-5.2,12.5-11.9v-0.1v-9.6C110.1,29.4,113.1,25,113.1,20.1L113.1,20.1z M93.2,48.8
	c-2.2,0-4.1-0.7-5.6-2.2c0.5-0.8,1.1-2.1,1.5-2.8c1.5,0.3,3-0.3,3.9-1.6l0.3-0.4c0.1-0.1,0.2-0.2,0.2-0.3c0.1,0,0.1-0.1,0.1-0.2
	l4.1-6.1c0.3-0.4,0.2-0.9-0.2-1.2s-0.9-0.2-1.2,0.2l-2.7,3.9l0,0l-0.1,0.1c-0.2,0.3-0.6,0.3-0.8,0.2c-0.3-0.2-0.3-0.6-0.2-0.8
	l0.3-0.5l2.4-3.5c0.3-0.4,0.2-0.9-0.2-1.2s-0.9-0.2-1.2,0.2l-2.4,3.5l0,0l-0.3,0.5c-0.2,0.4-0.6,0.4-0.9,0.2S89.9,36.2,90,36
	l0.1-0.1l2.7-3.9c0.3-0.4,0.2-0.9-0.2-1.2c-0.4-0.3-0.9-0.2-1.2,0.2l-4.2,6.1c0,0.1-0.1,0.1-0.1,0.2c-0.1,0.1-0.2,0.2-0.2,0.3
	L86.6,38c-0.8,1.2-0.9,2.7-0.2,3.9l-1.3,2c0,0-0.1,0.1-0.3,0.4c-0.4-0.4-0.9-0.9-1.1-1.1c-0.3-0.3-0.8-0.9-1.2-1.3
	c0.3-0.7,0.5-1.5,0.4-2.3c-0.2-1.3-1.1-2.7-2.1-4c-2.2-2.6-5.8-3.2-7.4-1.9c-2,1.7-0.9,5.6,1.3,8.2c1,1.2,1.8,1.8,3,2.1
	c0.8,0.2,1.6,0.2,2.3,0.1c0.4,0.5,1.2,1.5,2.6,3c-1.5,1.2-3.5,1.7-5.5,1.7c-4.5,0-8.2-3.5-8.5-8l0,0V28.2l-1.5-0.4
	c-3.5-0.9-6-4.1-6-7.8c0-4.4,3.6-8,8-8c0.8,0,1.7,0.1,2.5,0.4l1.8,0.6l0.7-1.7c1.8-4.4,6.1-7.3,11-7.3s9.2,2.9,11.1,7.3l0.7,1.7
	l1.8-0.6c0.8-0.3,1.7-0.4,2.5-0.4c4.4,0,8,3.6,8,8c0,3.6-2.5,6.8-6,7.8l-1.5,0.4v12.7C101.3,45.3,97.7,48.8,93.2,48.8L93.2,48.8z"/>
<g>
	<path class="st0" d="M15.5,64.7h-9v5.4h8.4v5.4H6.5v11.7H0v-28h15.5V64.7L15.5,64.7z"/>
	<path class="st0" d="M42.3,62.7c2.6,2.6,4.4,6.2,4.4,10.6c0,3.7-1.3,7.6-4.4,10.5c-2.6,2.5-6.1,4.1-10.8,4.1
		c-5.2,0-8.8-2.1-10.9-4.1c-2.7-2.5-4.4-6.3-4.4-10.4s1.8-8.1,4.3-10.6c1.9-1.9,5.4-4.1,10.9-4.1C35.8,58.6,39.5,59.9,42.3,62.7
		L42.3,62.7z M25.3,66.9c-1.2,1.2-2.5,3.2-2.5,6.3c0,2.6,0.8,4.6,2.6,6.3c1.8,1.7,3.8,2.3,6,2.3c2.9,0,4.9-1.1,6.2-2.4
		c1.1-1.1,2.4-3,2.4-6.2c0-2.9-1.2-5-2.4-6.3c-1.4-1.3-3.6-2.4-6.2-2.4S26.8,65.4,25.3,66.9L25.3,66.9z"/>
	<path class="st0" d="M69.9,62.7c2.6,2.6,4.4,6.2,4.4,10.6c0,3.7-1.3,7.6-4.4,10.5c-2.6,2.5-6.1,4.1-10.8,4.1
		c-5.2,0-8.8-2.1-10.9-4.1c-2.7-2.5-4.4-6.3-4.4-10.4s1.8-8.1,4.3-10.6c1.9-1.9,5.4-4.1,11-4.1C63.5,58.6,67.1,59.9,69.9,62.7
		L69.9,62.7z M53,66.9c-1.2,1.2-2.5,3.2-2.5,6.3c0,2.6,0.8,4.6,2.6,6.3c1.8,1.7,3.8,2.3,6,2.3c2.8,0,4.9-1.1,6.2-2.4
		c1.1-1.1,2.4-3,2.4-6.2c0-2.9-1.2-5-2.4-6.3c-1.4-1.3-3.6-2.4-6.2-2.4S54.5,65.4,53,66.9L53,66.9z"/>
	<path class="st0" d="M84.8,59.2c3.7,0,7.6,0.5,11,3.9c2.5,2.4,4,5.7,4,10S98.3,80.7,96,83c-3.9,3.9-8.7,4.2-11,4.2h-9v-28
		L84.8,59.2L84.8,59.2z M82.4,81.7h1.7c1.3,0,4.3-0.1,6.4-1.9c1.5-1.3,2.7-3.7,2.7-6.8S92,68.1,91,67c-2.1-2.1-4.8-2.4-6.8-2.4h-1.7
		L82.4,81.7L82.4,81.7z"/>
	<path class="st0" d="M116,66.1c-2.1-1.9-3.9-2-4.7-2c-0.9,0-2,0.1-2.7,1c-0.4,0.4-0.7,1.1-0.7,1.8c0,0.7,0.2,1.2,0.6,1.6
		c0.7,0.6,1.6,0.9,3.5,1.6l2.1,0.8c1.2,0.5,2.7,1.1,3.8,2.1c1.6,1.6,2.1,3.6,2.1,5.2c0,2.9-1,5.4-2.5,6.9c-2.5,2.6-6.1,2.8-7.9,2.8
		c-2,0-3.8-0.3-5.5-1.2c-1.4-0.7-3.1-2-4.1-3.1l3.4-4.6c0.7,0.7,1.8,1.7,2.6,2.1c1.1,0.7,2.2,1,3.5,1c0.8,0,2-0.2,2.9-1
		c0.6-0.5,1-1.2,1-2.3c0-0.9-0.4-1.5-1-2c-0.8-0.6-2.5-1.3-3.3-1.6l-2.3-0.8c-1.3-0.5-2.8-1.1-3.9-2.2c-1.5-1.6-1.7-3.5-1.7-4.9
		c0-2.5,0.8-4.6,2.4-6.3c2-2,4.3-2.6,6.9-2.6c1.9,0,5,0.3,8.3,2.8L116,66.1L116,66.1z"/>
	<path class="st0" d="M129,59.2v28h-6.5v-28C122.5,59.2,129,59.2,129,59.2z"/>
	<path class="st0" d="M148.8,64.7h-9.4v5.4h8.9v5.4h-8.9v6.2h9.4v5.4H133v-28h15.8V64.7L148.8,64.7z"/>
	<path class="st0" d="M166.2,66.1c-2.1-1.9-3.9-2-4.7-2c-0.9,0-2,0.1-2.7,1c-0.4,0.4-0.7,1.1-0.7,1.8c0,0.7,0.2,1.2,0.6,1.6
		c0.7,0.6,1.6,0.9,3.5,1.6l2.1,0.8c1.2,0.5,2.7,1.1,3.8,2.1c1.6,1.6,2.1,3.6,2.1,5.2c0,2.9-1,5.4-2.5,6.9c-2.5,2.6-6.1,2.8-7.9,2.8
		c-2,0-3.8-0.3-5.5-1.2c-1.4-0.7-3.1-2-4.1-3.1l3.4-4.6c0.7,0.7,1.9,1.7,2.6,2.1c1.1,0.7,2.2,1,3.5,1c0.8,0,2-0.2,2.9-1
		c0.6-0.5,1-1.2,1-2.3c0-0.9-0.4-1.5-1-2c-0.8-0.6-2.5-1.3-3.3-1.6l-2.3-0.8c-1.3-0.5-2.8-1.1-3.9-2.2c-1.5-1.6-1.7-3.5-1.7-4.9
		c0-2.5,0.8-4.6,2.4-6.3c2-2,4.3-2.6,6.9-2.6c1.9,0,5,0.3,8.3,2.8L166.2,66.1L166.2,66.1z"/>
</g>
<text transform="matrix(1 0 0 1 23.95 100.4785)" class="st0 st1 st2">creation and community</text>
</svg>
